<?xml version="1.0" encoding="UTF-8"?><svg id="Layer_2" xmlns="http://www.w3.org/2000/svg" viewBox="0 0 490 490"><g id="Capa_1"><g><path d="M0,245c0,135.1,109.9,245,245,245s245-109.9,245-245S380.1,0,245,0,0,109.9,0,245Zm455.7,0c0,116.2-94.5,210.7-210.7,210.7S34.3,361.2,34.3,245,128.8,34.3,245,34.3s210.7,94.5,210.7,210.7Z"/><path d="M187.7,257.1l72.1,72.1c6.7,6.7,17.6,6.7,24.3,0s6.7-17.6,0-24.3l-60-60,60-60c6.7-6.7,6.7-17.6,0-24.3-3.3-3.3-7.7-5-12.1-5s-8.8,1.7-12.1,5l-72.1,72.1c-6.8,6.9-6.8,17.7-.1,24.4Z"/></g></g></svg>