<?xml version="1.0" encoding="utf-8"?>
<!-- Uploaded to SVGRepo https://www.svgrepo.com -->
<!DOCTYPE svg PUBLIC "-//W3C//DTD SVG 1.1//EN" "http://www.w3.org/Graphics/SVG/1.1/DTD/svg11.dtd">
<svg version="1.1" id="Layer_1" xmlns="http://www.w3.org/2000/svg" xmlns:xlink="http://www.w3.org/1999/xlink" x="0px" y="0px"
	 viewBox="0 0 413.2 413.6" enable-background="new 0 0 413.2 413.6" xml:space="preserve">
<g>
	<path fill="#323232" d="M364,49.2C332.3,17.5,290.1,0,245.3,0s-87,17.5-118.8,49.2c-31.7,31.7-49.2,73.9-49.2,118.8
		c0,36,11.2,70.2,32.1,98.7L0,376.1l37.5,37.5l109.5-109.5c28.4,20.6,62.5,31.8,98.3,31.8c44.9,0,87-17.5,118.8-49.2
		c31.7-31.7,49.2-73.9,49.2-118.8C413.2,123.1,395.8,80.9,364,49.2z M342.8,265.5c-26.1,26.1-60.7,40.4-97.5,40.4
		s-71.5-14.3-97.5-40.4c-26.1-26.1-40.4-60.7-40.4-97.5s14.3-71.5,40.4-97.5C173.8,44.3,208.4,30,245.3,30s71.5,14.3,97.5,40.4
		c26.1,26.1,40.4,60.7,40.4,97.5S368.9,239.4,342.8,265.5z"/>
	<polygon fill="#323232" points="265.5,97.1 226.5,97.1 226.5,149.1 174.5,149.1 174.5,188.1 226.5,188.1 226.5,240.1 265.5,240.1 
		265.5,188.1 317.5,188.1 317.5,149.1 265.5,149.1 	"/>
</g>
<g>
</g>
<g>
</g>
<g>
</g>
<g>
</g>
<g>
</g>
<g>
</g>
<g>
</g>
<g>
</g>
<g>
</g>
<g>
</g>
<g>
</g>
<g>
</g>
<g>
</g>
<g>
</g>
<g>
</g>
</svg>
